<svg width="120" height="120" viewBox="0 0 120 120" xmlns="http://www.w3.org/2000/svg">
  <defs>
    <linearGradient id="alephGrad" x1="0%" y1="0%" x2="100%" y2="100%">
      <stop offset="0%" style="stop-color:#2c3e50;stop-opacity:1" />
      <stop offset="100%" style="stop-color:#34495e;stop-opacity:1" />
    </linearGradient>
  </defs>
  
  <!-- Background circle -->
  <circle cx="60" cy="60" r="55" fill="white" stroke="#e0e0e0" stroke-width="1"/>
  
  <!-- Aleph symbol stylized -->
  <g fill="#2c3e50" transform="translate(60, 60)">
    <!-- Main diagonal -->
    <path d="M -20,-25 L 15,30 Q 18,33 21,30 L 25,20 L -10,-35 Q -13,-38 -16,-35 Z" fill="url(#alephGrad)"/>
    
    <!-- Upper arm -->
    <path d="M 5,-30 Q 8,-33 11,-30 L 25,-10 Q 28,-7 25,-4 L 20,-2 L 5,-22 Q 2,-25 5,-28 Z" fill="url(#alephGrad)"/>
    
    <!-- Lower arm -->
    <path d="M -25,10 Q -28,7 -25,4 L -20,2 L -5,22 Q -2,25 -5,28 L -10,30 Q -13,33 -16,30 Z" fill="url(#alephGrad)"/>
    
    <!-- Center connector -->
    <circle cx="0" cy="0" r="5" fill="#34495e"/>
  </g>
  
  <!-- Text "Aleph" below -->
  <text x="60" y="95" font-family="Arial, sans-serif" font-size="14" font-weight="600" fill="#2c3e50" text-anchor="middle">Aleph</text>
</svg>
